<?xml version="1.0" encoding="UTF-8"?>
<svg version="1.1" xmlns="http://www.w3.org/2000/svg" width="2364" height="564">
<path d="M0 0 C5.65864145 3.26138448 8.27880764 6.73202101 10 13 C10.18188296 15.58292492 10.27085007 18.05459974 10.25447559 20.63443565 C10.25768207 21.38691149 10.26088855 22.13938733 10.26419219 22.91466546 C10.27249959 25.43841704 10.26656533 27.96193175 10.26069641 30.48568726 C10.26371676 32.3124522 10.26760565 34.13921588 10.27228898 35.96597731 C10.2825928 40.98789524 10.28038109 46.00974197 10.27610838 51.0316658 C10.27364548 56.44690475 10.2826499 61.86212637 10.29014587 67.27735901 C10.30290706 77.88720626 10.30468479 88.49702821 10.30234561 99.10688184 C10.30056387 107.72938553 10.302309 116.35188154 10.30657005 124.97438431 C10.30716524 126.20074661 10.30776043 127.42710892 10.30837366 128.69063372 C10.30958539 131.18184967 10.31079952 133.67306562 10.31201603 136.16428156 C10.32289705 159.53660425 10.32072642 182.90891251 10.31463119 206.28123601 C10.30930903 227.66997128 10.32071766 249.05866005 10.33972941 270.44738643 C10.35909433 292.40150024 10.36736617 314.3555925 10.36360615 336.30971491 C10.36169206 348.63841095 10.36420193 360.96706822 10.37832069 373.29575729 C10.39021832 383.79128735 10.39165757 394.28675478 10.37953053 404.78228568 C10.37363047 410.13816391 10.37257353 415.49392751 10.38453293 420.8497982 C10.39535315 425.75243814 10.39233444 430.65486719 10.37827124 435.5574971 C10.37561365 437.33133788 10.37802403 439.10519498 10.38600711 440.87901978 C10.39610852 443.29089488 10.38769552 445.70203627 10.37473011 448.11388206 C10.38569413 449.14587282 10.38569413 449.14587282 10.39687964 450.19871187 C10.3300389 456.20106521 9.05171998 461.84332976 4.82836914 466.28271484 C1.25617548 468.45162379 -2.35709769 469.9859669 -6.25390625 471.4765625 C-7.11415909 471.8129776 -7.97441193 472.1493927 -8.86073303 472.4960022 C-22.0643914 477.62719124 -35.3482343 482.55418319 -48.61886978 487.50894547 C-55.03040563 489.90378171 -61.4397609 492.30445516 -67.84953117 494.70401192 C-70.32886711 495.63210852 -72.80830029 496.55994499 -75.28773499 497.48777771 C-89.82578957 502.92921312 -104.35164317 508.40272915 -118.87462521 513.8842411 C-123.86217989 515.76634964 -128.85122944 517.64445403 -133.84106445 519.52050781 C-136.65840062 520.57998579 -139.4756933 521.63957935 -142.29296875 522.69921875 C-142.98369036 522.9589661 -143.67441196 523.21871346 -144.38606453 523.48633194 C-152.83380233 526.66407089 -161.27325659 529.86240755 -169.70193005 533.0903883 C-175.21749951 535.20251535 -180.73729775 537.3032925 -186.26030445 539.39589405 C-189.48007253 540.61665333 -192.69708524 541.84372062 -195.90811157 543.08731079 C-199.41443199 544.44203148 -202.92858168 545.77414677 -206.4453125 547.1015625 C-207.45978958 547.50014969 -208.47426666 547.89873688 -209.51948547 548.30940247 C-216.04245253 550.73793434 -222.02790084 551.91683872 -229 551 C-234.14853681 548.4257316 -237.182008 545.45397599 -239 540 C-239.09691048 537.5521519 -239.13756598 535.13295109 -239.13142776 532.68506241 C-239.1334804 531.93068339 -239.13553303 531.17630437 -239.13764787 530.39906538 C-239.14333857 527.85084596 -239.14185807 525.30268025 -239.14044189 522.75445557 C-239.14302435 520.91719365 -239.14603717 519.0799323 -239.1494453 517.24267173 C-239.15753267 512.17785935 -239.15930583 507.11306112 -239.16004276 502.04824305 C-239.1618903 496.59207432 -239.16943612 491.135913 -239.17617798 485.67974854 C-239.18977413 473.74182137 -239.19578801 461.80389756 -239.20018864 449.86596394 C-239.20294888 442.41556286 -239.20718583 434.96516308 -239.21169281 427.51476288 C-239.22388712 406.89742743 -239.23418613 386.28009303 -239.2375679 365.66275406 C-239.23778953 364.3292305 -239.23801132 362.99570695 -239.23823325 361.66218339 C-239.23845389 360.32542148 -239.23867438 358.98865958 -239.2388947 357.65189767 C-239.23933726 354.97008022 -239.23978437 352.28826276 -239.24023438 349.60644531 C-239.24034377 348.94150944 -239.24045316 348.27657357 -239.24056586 347.59148813 C-239.24419687 326.02864324 -239.26011827 304.46583195 -239.28342474 282.90299993 C-239.30801538 260.1104346 -239.32173366 237.31788576 -239.32293582 214.52530646 C-239.3238535 202.09878434 -239.32962919 189.67230623 -239.34775543 177.2457962 C-239.3631343 166.66526234 -239.36828998 156.08478608 -239.36001733 145.50424317 C-239.35610298 140.10395113 -239.35707865 134.70377517 -239.37107468 129.30349731 C-239.38376652 124.36131985 -239.38265767 119.41934624 -239.37048396 114.47716925 C-239.36851877 112.68777685 -239.37164316 110.89837025 -239.38032833 109.10899785 C-239.39137981 106.67851761 -239.38396174 104.24876206 -239.3719368 101.81830215 C-239.38332959 100.77386501 -239.38332959 100.77386501 -239.39495254 99.70832813 C-239.33201694 93.82435677 -238.0115679 89.0549489 -233.82641602 84.77954102 C-230.27597815 82.54414829 -226.68699914 81.0252938 -222.77734375 79.52734375 C-221.92019272 79.1918602 -221.06304169 78.85637665 -220.17991638 78.51072693 C-207.56252022 73.61036429 -194.85119053 68.94937048 -182.1545105 64.25927734 C-174.30094801 61.35820431 -166.45143131 58.44620529 -158.6015625 55.53515625 C-157.82555883 55.24746494 -157.04955517 54.95977364 -156.25003624 54.66336441 C-143.62989315 49.98425032 -131.02377739 45.26956868 -118.4375 40.5 C-117.60426208 40.18430054 -116.77102417 39.86860107 -115.91253662 39.54333496 C-112.39402762 38.21004956 -108.8755899 36.87657651 -105.35733032 35.54263306 C-90.9188922 30.07080005 -76.46726137 24.63383674 -62.01805496 19.19052124 C-58.96855923 18.0416438 -55.919154 16.89252627 -52.86975288 15.74339771 C-49.9610849 14.64732771 -47.05236917 13.55138449 -44.14363861 12.45548058 C-42.79606655 11.94775324 -41.44850633 11.43999449 -40.10095978 10.93219948 C-39.46841026 10.69384565 -38.83586075 10.45549183 -38.18414307 10.20991516 C-37.56100157 9.97503734 -36.93786007 9.74015951 -36.29583549 9.49816418 C-34.45656581 8.80573298 -32.61639469 8.11569778 -30.7762146 7.4256897 C-28.08323215 6.41356225 -25.39848032 5.38183199 -22.71621704 4.34164429 C-22.00107091 4.06693141 -21.28592478 3.79221853 -20.54910755 3.50918102 C-19.18038305 2.98326901 -17.81351874 2.45247856 -16.44896221 1.91584492 C-10.9571881 -0.18323391 -5.78425491 -1.5655925 0 0 Z " fill="#0EC7AA" transform="translate(501,8)"/>
<path d="M0 0 C3.68373956 1.26726147 7.31215868 2.64783677 10.93545532 4.07583618 C12.31144209 4.60240159 13.68807291 5.12728663 15.06529236 5.65061951 C17.99663171 6.76836284 20.92334133 7.89719749 23.84683228 9.03530884 C28.49384135 10.84427234 33.15028241 12.6280067 37.8085022 14.40786743 C43.35838553 16.53008827 48.90615619 18.65763967 54.45100594 20.79297829 C66.41421315 25.39921054 78.41275628 29.90761829 90.4230957 34.38955688 C96.02173522 36.47997692 101.61722997 38.57877657 107.21279907 40.67739868 C108.35031113 41.10392731 109.48782318 41.53045593 110.6598053 41.96990967 C124.96472319 47.33521776 139.2638094 52.71602413 153.56143188 58.10073853 C156.53882055 59.22206951 159.51635932 60.34300028 162.49404907 61.46353149 C169.99386921 64.28608948 177.49160041 67.11400491 184.98502731 69.95349693 C188.8185911 71.40502182 192.65621603 72.84509675 196.49743462 74.27623653 C199.48844247 75.39275127 202.47518566 76.52058865 205.46279907 77.64614868 C207.07207779 78.24032845 207.07207779 78.24032845 208.71386719 78.84651184 C220.26039602 83.22373544 220.26039602 83.22373544 223.33622408 89.27368838 C224.92055905 93.13200583 225.15774097 96.79586339 225.11934662 100.93095303 C225.12430613 101.68964783 225.12926565 102.44834263 225.13437545 103.23002818 C225.14731546 105.76900723 225.13895209 108.30745899 225.13064575 110.84645081 C225.1355354 112.6864554 225.14172555 114.52645693 225.14910364 116.36645323 C225.16551666 121.42034093 225.16318245 126.47407278 225.15772867 131.52797782 C225.15506019 136.97933933 225.16958678 142.43065912 225.18182373 147.88200378 C225.20288693 158.5605679 225.20741809 169.23907774 225.20563585 179.91766017 C225.20432878 188.59592183 225.20812954 197.27416653 225.21556091 205.952425 C225.21766008 208.45114074 225.21975768 210.94985648 225.22185373 213.44857222 C225.22289726 214.6922031 225.22394079 215.93583397 225.22501594 217.21715064 C225.24176721 238.06090363 225.24439502 258.90463341 225.2383725 279.74839097 C225.23818147 280.4112161 225.23799044 281.07404123 225.23779362 281.75695198 C225.23740652 283.09734475 225.2370162 284.43773753 225.23662264 285.7781303 C225.23065183 306.63742068 225.24609508 327.49660012 225.27822876 348.35586548 C225.31430444 371.79388766 225.3335949 395.2318507 225.32869005 418.66990381 C225.32644377 431.07909726 225.3317119 443.48818073 225.35658264 455.89735222 C225.37757333 466.46059782 225.38120977 477.02367314 225.36228305 487.58692568 C225.35311189 492.97731376 225.35202468 498.36738413 225.3726387 503.75774765 C225.39129971 508.6919317 225.38689985 513.62553674 225.36409289 518.55969841 C225.35989484 520.34495026 225.36414745 522.13024609 225.37768883 523.91545152 C225.49454053 540.44572554 225.49454053 540.44572554 219.73623657 547.12661743 C215.92868429 550.71019605 211.95072188 550.51713648 206.96127319 550.45965576 C200.81050496 549.82448729 195.22112757 547.46600688 189.49404907 545.24771118 C188.10937021 544.72673543 186.72408324 544.20737357 185.33824158 543.6894989 C181.61450621 542.29295048 177.89947429 540.87450081 174.18564987 539.45184326 C170.2531661 537.94997291 166.31280667 536.46905227 162.37319946 534.98599243 C155.91637817 532.55254708 149.46401147 530.1076562 143.01504517 527.6534729 C134.67561288 524.48015691 126.32732548 521.33093807 117.97451782 518.19302368 C108.09958897 514.48177625 98.22858573 510.76031381 88.36123657 507.02896118 C77.79967458 503.03529268 67.2333289 499.05450237 56.66378593 495.08200455 C51.96385243 493.3153814 47.2643318 491.54766007 42.56475925 489.78007698 C38.79018432 488.36053608 35.01534589 486.94170488 31.23986816 485.52456665 C22.06383194 482.0798641 12.89409969 478.61939359 3.73623657 475.12661743 C2.13633881 474.51738434 2.13633881 474.51738434 0.50411987 473.89584351 C-2.31748712 472.81584537 -5.13348622 471.72268116 -7.94735718 470.62271118 C-8.73723526 470.32083389 -9.52711334 470.0189566 -10.34092712 469.70793152 C-15.88542499 467.51091896 -20.04580583 465.50747371 -22.87547642 459.97605044 C-24.45082625 456.11787386 -24.68410869 452.44828249 -24.64408016 448.31669521 C-24.64874008 447.55740122 -24.6534 446.79810722 -24.65820113 446.01580432 C-24.67013972 443.47480099 -24.66076026 440.93433348 -24.65144348 438.39332581 C-24.65561688 436.55189631 -24.66109443 434.71046938 -24.66776329 432.86904722 C-24.68223546 427.81129322 -24.67796764 422.75370192 -24.67059648 417.69593894 C-24.6658716 412.24052956 -24.67836854 406.78515573 -24.68861389 401.32975769 C-24.70581966 390.64383938 -24.70663833 379.95797983 -24.70140099 369.27205127 C-24.69736192 360.58900571 -24.69879971 351.90597754 -24.70414925 343.22293282 C-24.70489767 341.98780247 -24.70564609 340.75267212 -24.70641719 339.48011358 C-24.70794864 336.97109671 -24.70948699 334.46207983 -24.71103216 331.95306296 C-24.72437171 309.0901822 -24.72003457 286.22732827 -24.70882161 263.3644488 C-24.69871621 242.49176548 -24.70708051 221.61916258 -24.73031616 200.74649048 C-24.75637919 177.29603662 -24.76918998 153.84562387 -24.76212841 130.39515406 C-24.75863109 117.97821815 -24.76090224 105.56134831 -24.77837944 93.14442253 C-24.79307013 82.5760122 -24.79377778 72.00771448 -24.77630853 61.43930643 C-24.76777095 56.04515914 -24.76571619 50.65121327 -24.78096008 45.25707626 C-24.7947348 40.32183124 -24.79013746 35.38696157 -24.77072085 30.45173866 C-24.76693832 28.66383257 -24.76994714 26.87589692 -24.7803325 25.08801698 C-24.79342673 22.6617884 -24.78198788 20.23686991 -24.76433468 17.81069851 C-24.77398519 17.11292346 -24.7836357 16.4151484 -24.79357865 15.69622865 C-24.69763476 9.29533804 -21.81422713 5.86616207 -17.70126343 1.25161743 C-12.61362722 -2.66623112 -5.85502431 -1.56680356 0 0 Z " fill="#0FDEBD" transform="translate(29.263763427734375,8.873382568359375)"/>
<path d="M0 0 C1.57226134 -0.00107611 3.14452228 -0.00301965 4.71678162 -0.00575256 C8.94667375 -0.01055481 13.17645856 -0.00300065 17.40633774 0.00720048 C21.86830241 0.01607307 26.33026462 0.01422167 30.79223633 0.01383972 C38.29005697 0.01477325 45.7878369 0.02340987 53.28564453 0.03710938 C61.89581773 0.05278545 70.50594629 0.0581088 79.11613274 0.05737382 C88.35395396 0.05669232 97.59175847 0.0636713 106.82957458 0.07282043 C109.45698106 0.07492919 112.08438475 0.07565852 114.71179199 0.07605934 C164.17373697 0.09070673 164.17373697 0.09070673 182.359375 2.93041992 C183.48794922 3.10412109 184.61652344 3.27782227 185.77929688 3.45678711 C212.77791665 7.85492477 240.29718145 17.61468716 260.796875 36.24291992 C261.31636719 36.7132666 261.83585937 37.18361328 262.37109375 37.66821289 C282.80386908 56.40836817 295.6915583 82.41221385 296.93554688 110.3581543 C297.9052783 144.679041 291.78121218 173.94369178 268.11328125 199.80151367 C260.11388338 208.24648287 251.10048889 214.58361385 241.046875 220.33276367 C238.46991257 221.84734856 236.12806314 223.38379738 233.796875 225.24291992 C234.87324219 225.65541992 235.94960938 226.06791992 237.05859375 226.49291992 C264.56485299 237.27081817 287.49057646 255.92788393 299.671875 283.24291992 C302.83934872 290.71765054 305.08102882 298.3017424 306.796875 306.24291992 C307.13525391 307.76079102 307.13525391 307.76079102 307.48046875 309.30932617 C312.43860281 336.63035456 309.47195862 368.27945015 296.796875 393.24291992 C296.28253906 394.27030273 295.76820313 395.29768555 295.23828125 396.35620117 C291.67258825 403.24140347 287.8501371 409.36798919 282.796875 415.24291992 C282.08015625 416.10401367 281.3634375 416.96510742 280.625 417.85229492 C254.01473031 448.63672456 213.20748904 461.18385484 173.796875 464.24291992 C154.66703137 465.54514436 135.5007201 465.40732448 116.33802342 465.41017699 C113.61843306 465.41089557 110.8988475 465.41304461 108.17925835 465.41567421 C98.65653038 465.42486734 89.13381624 465.42901584 79.61108398 465.42822266 C70.78587157 465.42762021 61.96071993 465.4382203 53.1355229 465.45396632 C45.50433191 465.4670889 37.87316073 465.47240473 30.24195856 465.47176725 C25.70732014 465.47151409 21.1727362 465.4742649 16.63810921 465.4849453 C12.37873117 465.49470909 8.11945892 465.49464949 3.8600769 465.48742867 C2.31023947 465.48639376 0.76039512 465.48867946 -0.78943062 465.49478912 C-17.81915792 465.55750952 -36.14093067 465.28467082 -49.1640625 452.73510742 C-59.65846182 439.90861936 -60.50708936 425.32612013 -60.46382141 409.39823914 C-60.46684651 407.81067326 -60.47073778 406.22310885 -60.47541398 404.63554698 C-60.48565657 400.29779712 -60.48352173 395.96013025 -60.47923338 391.6223737 C-60.47675934 386.93444826 -60.48578875 382.24654245 -60.49327087 377.55862427 C-60.50600116 368.38390329 -60.50781364 359.2092116 -60.50547061 350.03448328 C-60.50368539 342.57443118 -60.50544148 335.11438796 -60.50969505 327.65433693 C-60.51029024 326.59135536 -60.51088543 325.52837379 -60.51149866 324.43318066 C-60.51271045 322.27351277 -60.51392458 320.11384489 -60.51514103 317.954177 C-60.52601019 297.71388296 -60.52385706 277.47360559 -60.51775619 257.23331062 C-60.51258787 238.73301485 -60.52384135 220.23277174 -60.54285441 201.73248639 C-60.56224503 182.71847691 -60.57048664 163.70449233 -60.56673115 144.6904729 C-60.56482094 134.02274868 -60.56728919 123.35506927 -60.58144569 112.68735313 C-60.59337608 103.60551977 -60.59474581 94.52375881 -60.58265553 85.44192442 C-60.57677843 80.81233233 -60.57563496 76.18287258 -60.58765793 71.55328941 C-60.59855584 67.30742429 -60.59536725 63.06180137 -60.58139624 58.81594739 C-60.57876002 57.28777352 -60.5810817 55.75958043 -60.58913211 54.23142549 C-60.66193835 39.36823453 -59.31200614 24.63892505 -49.234375 12.96166992 C-35.88408057 -0.00165945 -17.52606641 -0.07071052 0 0 Z M24.796875 68.24291992 C24.796875 110.15291992 24.796875 152.06291992 24.796875 195.24291992 C44.555625 195.30479492 64.314375 195.36666992 84.671875 195.43041992 C90.87726074 195.45773193 97.08264648 195.48504395 103.47607422 195.51318359 C109.10938778 195.52322585 109.10938778 195.52322585 114.7427063 195.5292511 C117.22359844 195.53381407 119.70448455 195.54427275 122.18533325 195.55964661 C148.43605646 195.71398469 176.53918795 194.72729037 196.80078125 175.46948242 C209.61904351 161.17122511 212.73428687 143.99718106 211.93603516 125.42504883 C211.03043546 111.22461016 205.17400798 95.85850571 194.38671875 86.19604492 C174.78828355 71.41592788 151.10343984 68.0453552 127.08325195 68.12939453 C125.9519369 68.129274 124.82062185 68.12915346 123.65502453 68.12902927 C120.03171435 68.1297693 116.4084571 68.13735563 112.78515625 68.14526367 C110.53267441 68.14673592 108.28019222 68.14775489 106.02770996 68.14831543 C97.72159305 68.15353559 89.41548349 68.16749684 81.109375 68.18041992 C53.2346875 68.21135742 53.2346875 68.21135742 24.796875 68.24291992 Z M24.796875 263.24291992 C24.796875 307.46291992 24.796875 351.68291992 24.796875 397.24291992 C55.7034375 397.30479492 55.7034375 397.30479492 87.234375 397.36791992 C93.7098999 397.38612793 100.1854248 397.40433594 106.85717773 397.4230957 C112.72601976 397.42978977 112.72601976 397.42978977 118.59486389 397.43380737 C121.18336486 397.43685322 123.77166169 397.4430621 126.36012268 397.45407104 C170.95144261 397.70026924 170.95144261 397.70026924 208.796875 376.24291992 C221.12542969 361.95630067 225.04311808 342.71363828 223.96533203 324.26049805 C222.51420827 306.88066217 216.72659461 290.72981773 203.296875 278.99291992 C180.89268684 262.20701279 151.74079955 262.92812952 125.13761139 263.0403595 C121.94627838 263.05191961 118.75495002 263.05229483 115.56359863 263.05371094 C106.28717191 263.06412266 97.01077148 263.09204498 87.734375 263.11791992 C66.965 263.15916992 46.195625 263.20041992 24.796875 263.24291992 Z " fill="#2C484B" transform="translate(760.203125,6.757080078125)"/>
<path d="M0 0 C0.79664062 0.65355469 1.59328125 1.30710938 2.4140625 1.98046875 C25.85330414 21.90019578 36.16981131 53.11581968 39 83 C40.40189832 101.56964696 40.16434035 120.23417115 40.16725707 138.84341884 C40.16797616 141.42900153 40.17012612 144.01457918 40.17275429 146.6001606 C40.18194384 155.65605116 40.18609634 164.71192719 40.18530273 173.76782227 C40.18470022 182.1567834 40.19530245 190.54568061 40.2110464 198.93462557 C40.2241731 206.19214676 40.22948465 213.44964713 40.22884732 220.70718008 C40.22859431 225.01825423 40.23133713 229.32927106 40.24202538 233.64033318 C40.25179638 237.68959434 40.25172479 241.73874427 40.24450874 245.78800964 C40.24347475 247.26044441 40.24575388 248.73288648 40.2518692 250.20530891 C40.31808281 267.2712737 40.01707566 284.934628 27.484375 297.8359375 C19.17616093 305.07296674 8.38631477 307.56282561 -2.484375 307.25 C-11.56679564 306.34739919 -19.7128659 304.6519723 -27 299 C-27.886875 298.401875 -28.77375 297.80375 -29.6875 297.1875 C-39.54488674 287.86294497 -41.57542925 273.97063637 -42 261 C-42.40089844 261.67804688 -42.80179688 262.35609375 -43.21484375 263.0546875 C-56.21806964 284.34341561 -76.76346783 298.69205714 -100.8125 305 C-104.20184863 305.74680563 -107.57795014 306.42273673 -111 307 C-112.02867187 307.18433594 -113.05734375 307.36867188 -114.1171875 307.55859375 C-148.54063553 311.47192336 -186.22781533 304.70924294 -214 283 C-218.1576261 279.49601455 -222.0831431 275.7684046 -226 272 C-226.98613281 271.12601562 -226.98613281 271.12601562 -227.9921875 270.234375 C-242.97459637 256.56378994 -252.01110261 233.452749 -253.14038086 213.52246094 C-253.98019988 189.9070013 -251.47630642 166.33715985 -235 148 C-234.31808594 147.21496094 -233.63617187 146.42992187 -232.93359375 145.62109375 C-201.15297325 111.32734346 -141.43884093 110.00805335 -98.11547852 108.19848633 C-87.45563033 107.80960428 -76.79003232 107.89543043 -66.125 107.9375 C-63.86458434 107.94253397 -61.60416758 107.94709347 -59.34375 107.95117188 C-53.89580846 107.96200668 -48.44790973 107.978589 -43 108 C-42.80997416 80.72505113 -42.80997416 80.72505113 -53 56 C-53.721875 54.948125 -54.44375 53.89625 -55.1875 52.8125 C-68.07522589 39.92477411 -87.08298511 38.26836756 -104.41552734 37.95654297 C-131.91037265 38.05513237 -158.49110792 45.4906826 -183.65771484 56.02050781 C-186.19230063 57.0804159 -188.72751346 58.1376998 -191.26953125 59.1796875 C-192.05561768 59.50437012 -192.8417041 59.82905273 -193.65161133 60.16357422 C-202.02743839 63.14679321 -209.6274035 62.78269767 -217.7109375 59.19140625 C-225.00608157 55.3944456 -229.02675015 49.53847465 -232.25 42.125 C-235.00578017 30.64258262 -234.09556449 19.31702685 -228 9 C-221.34375089 -0.15648199 -213.44998856 -4.60263603 -203 -8.375 C-201.94546631 -8.76075195 -200.89093262 -9.14650391 -199.80444336 -9.54394531 C-180.84114668 -16.38728951 -161.89623262 -21.66727151 -142 -25 C-141.0296582 -25.16516113 -140.05931641 -25.33032227 -139.05957031 -25.50048828 C-94.1805354 -32.81887391 -36.08920889 -31.3265066 0 0 Z M-160.28125 175.84375 C-167.58003504 183.38995148 -169.62426976 192.71076576 -169.46850586 202.9440918 C-168.93787112 214.63329625 -165.00705884 224.40379302 -157 233 C-143.73227686 244.62393443 -128.43197072 248.70279123 -110.95214844 247.90673828 C-91.09615572 246.42910497 -74.82539272 238.6417897 -60.9765625 224.3515625 C-54.23134375 216.32661846 -49.41418931 206.86752442 -46 197 C-45.6803125 196.08863281 -45.360625 195.17726563 -45.03125 194.23828125 C-41.74357547 182.83796541 -42.73233302 170.74303105 -43 159 C-104.67094725 155.45824012 -104.67094725 155.45824012 -160.28125 175.84375 Z " fill="#2C484B" transform="translate(2320,170)"/>
<path d="M0 0 C9.41544854 8.59908017 12.58168135 19.35557177 13.18530083 31.82918549 C13.28869656 36.39730902 13.27887237 40.96515311 13.27124023 45.53417969 C13.275635 47.28484335 13.28093987 49.03550492 13.28707886 50.78616333 C13.29852265 54.53739446 13.30403413 58.28856952 13.30496025 62.03981781 C13.30691292 67.98454342 13.32503198 73.92915435 13.34571838 79.87384033 C13.39474532 94.63920942 13.42574251 109.40460948 13.44702148 124.17004395 C13.46359057 135.65012254 13.4865303 147.13010197 13.53004223 158.61011434 C13.55168545 164.50601879 13.55988897 170.40173422 13.55764949 176.29767561 C13.55932935 179.98262276 13.57345755 183.66744891 13.59086227 187.35235214 C13.59640887 189.04568721 13.59699659 190.73904793 13.59192467 192.43238449 C13.54505292 209.93160402 15.26535134 229.16294673 27.05859375 243.0703125 C37.92687425 253.8729897 52.47772516 256.95634152 67.3125 257.3125 C86.12173632 257.00478243 103.98174492 250.79606234 117.75 237.75 C134.94971179 219.62887508 139.1417847 196.35453988 139.15771484 172.31933594 C139.16238962 170.73173382 139.16753427 169.14413302 139.17311096 167.55653381 C139.18434685 164.14902626 139.19280264 160.74152722 139.19923019 157.33400726 C139.20996311 151.9364451 139.23022183 146.53894443 139.25234985 141.14141846 C139.31409687 125.79661887 139.36824323 110.45182371 139.40136719 95.10693359 C139.41976 86.62325253 139.44875141 78.13967547 139.4893719 69.65607095 C139.51035832 65.17441235 139.5258873 60.69288432 139.52817917 56.21117401 C139.5303395 51.99212442 139.54634869 47.77334693 139.57256889 43.55438042 C139.57971003 42.01459953 139.58188834 40.47478548 139.57846642 38.93499184 C139.55251643 25.02680873 140.76658729 11.36180901 151.00390625 0.96484375 C161.89044727 -8.20789475 175.21331423 -9.82172299 189 -9 C201.04148026 -7.45889949 210.77915024 -3.7463537 218.53515625 5.87109375 C225.2165345 15.58136347 226.30611873 26.58554404 226.25396729 38.08178711 C226.25708727 39.15316642 226.26020725 40.22454573 226.26342177 41.32839108 C226.27135703 44.8947657 226.26509556 48.46096806 226.25878906 52.02734375 C226.26150091 54.59384256 226.26506292 57.16034059 226.26940918 59.72683716 C226.27827611 65.959939 226.27639325 72.19299251 226.2705839 78.4260962 C226.26605675 83.49442581 226.26545905 88.56274194 226.26763153 93.631073 C226.267938 94.35397551 226.26824446 95.07687803 226.26856022 95.82168669 C226.2691997 97.29050804 226.26984813 98.75932938 226.2705054 100.22815073 C226.27620078 113.9830563 226.26966324 127.73793516 226.25890467 141.49283636 C226.24996987 153.28071938 226.25152214 165.068563 226.26074219 176.85644531 C226.27145882 190.56403152 226.27565153 204.27159434 226.26951766 217.97918415 C226.2688806 219.44243176 226.26825186 220.90567938 226.26763153 222.368927 C226.26732298 223.08876689 226.26701443 223.80860679 226.26669653 224.55026001 C226.26497377 229.60918583 226.26787564 234.66809675 226.27259064 239.72702026 C226.27880388 246.54293402 226.27434458 253.35877233 226.26280212 260.1746788 C226.26016214 262.67317456 226.26090932 265.17167659 226.26532745 267.67016983 C226.27081035 271.08626799 226.26391532 274.5021297 226.25396729 277.91821289 C226.25842873 278.90169173 226.26289017 279.88517057 226.26748681 280.89845181 C226.19838191 293.1730892 223.88521041 305.9822779 215.171875 315.1796875 C205.24948553 323.49593479 192.62083203 325.89199865 180 325 C168.78033485 323.94210329 158.7990692 320.43735619 151 312 C143.61831558 302.68741175 142.40448714 291.46722442 141 280 C140.29875 280.845625 139.5975 281.69125 138.875 282.5625 C118.69802579 306.76343329 93.67876392 322.38544697 61.80517578 325.77294922 C29.38101703 328.39735893 -6.01194391 324.45692947 -32.5 304 C-34.02231622 302.69220372 -35.52308847 301.35886354 -37 300 C-38.16595703 298.93652344 -38.16595703 298.93652344 -39.35546875 297.8515625 C-56.03188632 281.92935477 -64.42722276 260.61128537 -69.25 238.5 C-69.47671387 237.47181152 -69.47671387 237.47181152 -69.70800781 236.42285156 C-72.67820931 221.71934845 -73.29868365 206.91325784 -73.2746582 191.96508789 C-73.27901953 190.13793736 -73.28420732 188.31078866 -73.29014587 186.48364258 C-73.30338486 181.5812126 -73.30413235 176.67886039 -73.30158257 171.77641606 C-73.30050393 167.66581061 -73.30541811 163.55522033 -73.310188 159.44461817 C-73.32122776 149.74683971 -73.32174992 140.04910003 -73.31567383 130.35131836 C-73.30961876 120.37410089 -73.32199658 110.3970239 -73.3432439 100.41983038 C-73.36088455 91.81723452 -73.36685794 83.2146833 -73.36360615 74.61207002 C-73.36179937 69.48950547 -73.3643702 64.3670415 -73.37832069 59.24449348 C-73.39093709 54.43357934 -73.38891904 49.62288453 -73.37590981 44.81197357 C-73.37355395 43.05405285 -73.37624292 41.29611648 -73.38453293 39.53821373 C-73.44358329 26.03715753 -72.74460405 12.55804167 -63.21484375 2.02734375 C-47.14197969 -13.02299218 -17.11149493 -13.53001924 0 0 Z " fill="#2C484B" transform="translate(1237,152)"/>
<path d="M0 0 C8.33100448 9.95926532 9.35738629 21.06132782 9.3236084 33.5531311 C9.3301803 35.52092311 9.3301803 35.52092311 9.33688498 37.52846849 C9.3487642 41.15469711 9.34837224 44.7808351 9.34594989 48.4070785 C9.34552936 52.32409447 9.35663874 56.24107963 9.3664093 60.15808105 C9.3818477 66.94270609 9.39027043 73.72731038 9.39411926 80.51195145 C9.3998768 90.33657875 9.41848053 100.16115042 9.4405598 109.9857531 C9.47626516 125.94671041 9.50458229 141.90767087 9.52685547 157.86865234 C9.52819046 158.82343394 9.52952545 159.77821554 9.5309009 160.76192991 C9.54032541 167.53659885 9.54948735 174.31126813 9.55859375 181.0859375 C9.56898633 188.81429063 9.5795055 196.54264356 9.59033203 204.27099609 C9.59166277 205.22279124 9.59299352 206.17458638 9.59436458 207.1552238 C9.61682905 223.05031509 9.64704174 238.94538272 9.68272448 254.84044969 C9.70433557 264.63419352 9.71899502 274.42790051 9.72456324 284.22166686 C9.72882498 290.9393616 9.74010085 297.65702129 9.75678718 304.37469657 C9.76614952 308.24476361 9.77232247 312.11476517 9.76972389 315.98484421 C9.76739012 319.53689088 9.77435702 323.08880065 9.78830272 326.64081959 C9.79333259 328.5149913 9.78870619 330.38918154 9.78358221 332.26335299 C9.87346746 348.771792 11.78071543 368.18305918 24.09375 380.49609375 C32.78712059 387.71757091 42.22842179 390.66311105 53.3671875 390.453125 C55.01757199 390.43560963 56.66796301 390.41870126 58.31835938 390.40234375 C60.91009687 390.37138736 63.50150604 390.33584082 66.09301758 390.28955078 C68.60111552 390.24712548 71.10882816 390.22374978 73.6171875 390.203125 C74.77365028 390.17519363 74.77365028 390.17519363 75.95347595 390.146698 C80.53717928 390.12493324 83.41373988 390.63331733 87.05859375 393.4609375 C94.97415076 402.2811296 93.66551811 417.04041699 93.20654297 428.21337891 C92.53166247 438.46577146 89.64978636 446.98998559 82.2421875 454.23828125 C66.35896112 467.36199759 36.32032508 464.7368063 17.22070312 463.23828125 C11.75617096 462.65176306 6.41325004 461.68893542 1.05859375 460.4609375 C0.34203613 460.29996582 -0.37452148 460.13899414 -1.11279297 459.97314453 C-24.23412812 454.55334946 -44.62812935 441.31560575 -57.53564453 421.10522461 C-77.22246628 388.83863189 -77.09910636 351.42953177 -77.08678997 314.84673917 C-77.08658341 311.00832162 -77.09212834 307.16991127 -77.09684753 303.33149719 C-77.10509722 295.83784112 -77.10789969 288.34419291 -77.10845991 280.85053267 C-77.10893734 274.75696524 -77.1110033 268.66340037 -77.11416054 262.56983376 C-77.1229479 245.25537377 -77.12758237 227.94091995 -77.12683006 210.62645771 C-77.12679011 209.69615977 -77.12675015 208.76586183 -77.12670898 207.80737305 C-77.1266681 206.87592784 -77.12662722 205.94448264 -77.1265851 204.98481182 C-77.12617812 189.86952246 -77.13576583 174.75425794 -77.14984735 159.63897576 C-77.1642256 144.08146065 -77.17111689 128.52395765 -77.17025357 112.96643573 C-77.16992234 104.24666816 -77.17263792 95.52692671 -77.18343163 86.80716515 C-77.19255524 79.3899531 -77.19469624 71.97277907 -77.1879222 64.55556383 C-77.18466774 60.77667937 -77.18456154 56.99786776 -77.19327545 53.21899033 C-77.2026472 49.11250699 -77.19633737 45.0061908 -77.18864441 40.89970398 C-77.19378797 39.72030941 -77.19893154 38.54091484 -77.20423096 37.32578105 C-77.14256614 22.36766198 -75.30968502 8.85384617 -64.94140625 -2.5390625 C-47.91855328 -18.00905625 -15.81655154 -15.6347521 0 0 Z " fill="#2C484B" transform="translate(1924.94140625,14.5390625)"/>
<path d="M0 0 C9.02132709 8.34008271 11.25821008 20.72675258 11.75 32.4375 C11.48612353 43.15921755 8.46918205 51.81781706 0.8515625 59.47265625 C-10.41108328 68.97662391 -25.79484349 69.85252444 -39.875 71.4375 C-62.81751132 74.20154321 -85.54731931 79.9977802 -101.08984375 98.49609375 C-117.94517918 121.40925357 -117.06967109 147.87829921 -117.03231621 175.02188873 C-117.03050792 179.22475645 -117.04803343 183.42754018 -117.06408691 187.63037109 C-117.10482741 199.17879296 -117.11647832 210.72720657 -117.12761688 222.27568817 C-117.13815631 232.8965912 -117.15502343 243.51738493 -117.19571257 254.13822079 C-117.21395143 259.11869767 -117.21800483 264.09891318 -117.21077728 269.07941532 C-117.20924665 272.18182128 -117.22009232 275.2840982 -117.23415565 278.38646889 C-117.23812865 279.81381046 -117.23708453 281.24117716 -117.23038292 282.66850853 C-117.17076084 296.43291884 -119.2767124 308.7966975 -128.75 319.3125 C-138.20539649 328.15257784 -151.38772315 330.10161624 -163.8359375 329.87109375 C-176.01337519 328.87932305 -186.692315 325.67603765 -195.421875 316.71875 C-203.49520912 306.96680185 -204.77601726 295.11357381 -204.76544189 282.93722534 C-204.76841302 281.86659131 -204.77138414 280.79595728 -204.7744453 279.6928798 C-204.78311754 276.10497834 -204.78463931 272.51711032 -204.78613281 268.92919922 C-204.79076205 266.35668364 -204.79578685 263.78416875 -204.80117798 261.21165466 C-204.81473804 254.22175947 -204.82078249 247.23187002 -204.82518864 240.24196386 C-204.82795521 235.87351835 -204.83219333 231.50507504 -204.83669281 227.13663101 C-204.84888283 215.0306328 -204.85918242 202.92463634 -204.8625679 190.81863213 C-204.86278747 190.04437984 -204.86300703 189.27012755 -204.86323325 188.47241307 C-204.86345153 187.69635586 -204.86366981 186.92029865 -204.8638947 186.12072456 C-204.86433816 184.54825648 -204.86478472 182.97578839 -204.86523438 181.40332031 C-204.8654558 180.62332936 -204.86567723 179.84333841 -204.86590537 179.03971137 C-204.86985093 166.40934695 -204.88729875 153.77904031 -204.9105939 141.1486982 C-204.93434311 128.16686555 -204.94677139 115.18506185 -204.94793582 102.20320714 C-204.94885062 94.92023833 -204.9545535 87.63734481 -204.97275543 80.35439682 C-204.9898246 73.5007585 -204.99138241 66.64726492 -204.98261642 59.79361153 C-204.98184704 57.28305364 -204.98617564 54.77248803 -204.99607468 52.26194954 C-205.00883033 48.82435677 -205.0028973 45.38726642 -204.99249268 41.94967651 C-205.00457728 40.47326763 -205.00457728 40.47326763 -205.01690602 38.96703231 C-204.93283579 27.02181876 -202.25248921 15.29167345 -194 6.375 C-184.3157434 -2.73643551 -172.54167301 -4.91782273 -159.59765625 -4.6171875 C-147.785325 -3.90317011 -137.31394611 -0.34959947 -129.12109375 8.58984375 C-120.53366589 19.9126925 -120.26628292 32.96055173 -119.625 46.5625 C-119.1403125 45.80066406 -118.655625 45.03882813 -118.15625 44.25390625 C-101.66311608 18.84813651 -77.10685687 4.32809186 -47.7578125 -2.3125 C-13.10683888 -9.57590168 -13.10683888 -9.57590168 0 0 Z " fill="#2C484B" transform="translate(1772.625,147.4375)"/>
</svg>
